<svg width="1440" height="2006" viewBox="0 0 1440 2006" fill="none" xmlns="http://www.w3.org/2000/svg">
<path d="M1118.81 1918.19C1382.45 1941.41 1593.29 2005.5 1593.29 2005.5L1956.29 1648.5L1726.29 1000.5C1726.29 1000.5 1259.94 980.36 1084.79 855.5C727.79 601 740.782 295 383.782 295C-10.211 295 -177.211 637.5 -131.711 928L-10.211 1814.45C-10.211 1814.45 203.778 1737.6 383.782 1737.6C673.451 1737.6 810.078 1890.98 1118.81 1918.19Z" fill="#FFCBB3"/>
<path d="M488.662 7.78662C164.24 -26.2454 -0.082871 62.2992 -0.082871 62.2992V376.735V1271.67C-0.082871 1271.67 -60.1659 1320.5 202.583 1358.61C531.02 1406.26 738.899 1239.42 1090.79 1147.8C1372.31 1074.5 1744.19 1113.81 1878 1193.7V159.782C1878 159.782 1614.67 272.382 1393.17 272.382C1036.71 272.382 868.579 47.6402 488.662 7.78662Z" fill="#FFDBA6"/>
</svg>
