<?xml version="1.0" encoding="utf-8"?>
<!-- Generator: Adobe Illustrator 21.1.0, SVG Export Plug-In . SVG Version: 6.00 Build 0)  -->
<svg version="1.1" id="Layer_1" xmlns="http://www.w3.org/2000/svg" xmlns:xlink="http://www.w3.org/1999/xlink" x="0px" y="0px"
	 viewBox="0 0 20 20" style="enable-background:new 0 0 20 20;" xml:space="preserve">
<style type="text/css">
	.st0{fill:#FFFFFF;}
	.st1{fill:none;stroke:#000000;stroke-width:0.366;stroke-linecap:round;stroke-linejoin:round;stroke-miterlimit:10;}
</style>
<g>
	<path class="st0" d="M9.9,10c-2.1,2.1-5.6,2.1-7.7,0C4.3,7.9,7.8,7.9,9.9,10"/>
	<path class="st1" d="M9.9,10c-2.1,2.1-5.6,2.1-7.7,0C4.3,7.9,7.8,7.9,9.9,10z"/>
	<path class="st0" d="M17.8,10c-2.1,2.1-5.6,2.1-7.7,0C12.2,7.9,15.7,7.9,17.8,10"/>
	<path class="st1" d="M17.8,10c-2.1,2.1-5.6,2.1-7.7,0C12.2,7.9,15.7,7.9,17.8,10z"/>
	<path d="M7.6,10c0,0.8-0.7,1.5-1.5,1.5c-0.8,0-1.5-0.7-1.5-1.5c0-0.8,0.7-1.5,1.5-1.5C6.9,8.5,7.6,9.2,7.6,10"/>
	<path d="M15.6,10c0,0.8-0.7,1.5-1.5,1.5c-0.8,0-1.5-0.7-1.5-1.5c0-0.8,0.7-1.5,1.5-1.5C14.9,8.5,15.6,9.2,15.6,10"/>
	<path class="st0" d="M15.4,10c0,0.4-0.3,0.6-0.6,0.6c-0.4,0-0.6-0.3-0.6-0.6c0-0.3,0.3-0.6,0.6-0.6C15.1,9.4,15.4,9.6,15.4,10"/>
	<path class="st0" d="M7.3,10c0,0.4-0.3,0.6-0.6,0.6C6.3,10.6,6,10.4,6,10c0-0.3,0.3-0.6,0.6-0.6C7,9.4,7.3,9.6,7.3,10"/>
</g>
</svg>
